<?xml version="1.0"?>
<svg version="1.1" xmlns="http://www.w3.org/2000/svg" width="400" height="200" style=""><path fill="#2f3336" d="M24.45,96.465l-5.355,0l-1.33,0l-0.875,0l0,24.535l0.875,0l1.33,0l5.355,0q5.11,0,8.75-3.57q3.745-3.675,3.745-8.925q0-4.97-3.745-8.54q-3.675-3.5-8.75-3.5z M24.45,118.795l-5.355,0l0-20.055l5.355,0q4.375,0,7.35,2.87q2.94,2.87,2.94,6.895q0,4.375-2.94,7.315q-2.975,2.975-7.35,2.975z M51.3244,96.36q-3.92,0-6.58,2.835q-2.625,2.8-2.625,6.825l0,14.98l2.205,0l0-10.99l14.07,0l0,10.99l2.205,0l0-14.98q0-4.025-2.625-6.825q-2.73-2.835-6.65-2.835z M58.3944,107.84l-14.07,0l0-1.82q0-3.01,2.03-5.215q2.065-2.24,4.97-2.24t5.04,2.24q2.03,2.205,2.03,5.215l0,1.82z M65.9138,121l2.17,0l0-14.84q0-2.94,2.24-5.25q2.24-2.24,5.18-2.24t5.25,2.24q2.24,2.31,2.24,5.25l0,14.84l2.17,0l0-14.84q0-3.99-2.835-6.825t-6.825-2.835q-3.92,0-6.755,2.835t-2.835,6.825l0,14.84z M90.6182,121.035l2.205,0l0-24.605l-2.205,0l0,24.605z M100.3426,114.28q0-1.68,1.19-3.045q1.19-1.435,2.87-1.435l0.455,0l6.545,0l0-2.17l-6.545,0l-0.455,0q-1.785-0.35-2.9225-1.54t-1.1375-2.835q0-2.065,1.2075-3.2725t3.3075-1.2075l11.9,0l0-2.205l-11.9,0q-2.695,0-4.69,1.995q-1.995,1.925-1.995,4.69q0,1.75,0.665,3.185t1.96,2.065q-1.295,0.945-1.96,2.485t-0.665,3.29q0,2.73,1.995,4.655q2.03,2.03,4.69,2.03l11.9,0l0-2.31l-11.9,0q-2.1,0-3.3075-1.19t-1.2075-3.185z M121.337,121.07l17.115,0l0-1.785l-14.945,0l0-22.785l-2.17,0l0,24.57z"/><path fill="#1986d4" d="M176.3604,97.2l-1.764,0l0,11.9q0,2.352-1.792,4.144t-4.144,1.792t-4.144-1.792t-1.792-4.144l0-11.9l-1.764,0l0,11.9q0,2.352-1.792,4.144q-1.848,1.792-4.172,1.792q-2.352,0-4.144-1.792t-1.792-4.144l0-11.9l-1.764,0l0,11.9q0,3.108,2.296,5.404t5.404,2.296q2.128,0,4.004-1.176q1.848-1.148,2.66-2.996q1.008,1.792,2.968,2.996q1.904,1.176,4.032,1.176q3.136,0,5.432-2.296q2.268-2.268,2.268-5.404l0-11.9z M182.37592,111.424q0-1.344,0.952-2.436q0.952-1.148,2.296-1.148l0.364,0l5.236,0l0-1.736l-5.236,0l-0.364,0q-1.428-0.28-2.338-1.232t-0.91-2.268q0-1.652,0.966-2.618t2.646-0.966l9.52,0l0-1.764l-9.52,0q-2.156,0-3.752,1.596q-1.596,1.54-1.596,3.752q0,1.4,0.532,2.548t1.568,1.652q-1.036,0.756-1.568,1.988t-0.532,2.632q0,2.184,1.596,3.724q1.624,1.624,3.752,1.624l9.52,0l0-1.848l-9.52,0q-1.68,0-2.646-0.952t-0.966-2.548z M212.02344,106.804q1.092-0.532,1.792-1.764q0.7-1.176,0.7-2.52q0-2.408-1.624-3.892q-1.624-1.456-4.088-1.456l-7.868,0l-0.336,0l-1.428,0l0,19.628l1.428,0l0.336,0l7.868,0q2.464,0,4.088-1.456q1.624-1.484,1.624-3.892q0-1.316-0.686-2.562t-1.806-2.086z M200.93544,98.6l7.868,0q1.68,0,2.772,1.148q1.176,1.232,1.176,2.772q0,1.26-0.924,2.324q-0.868,0.952-2.296,1.26l-0.728,0l-7.868,0l0-7.504z M208.80344,115.372l-7.868,0l0-7.504l7.868,0l0.728,0q1.428,0.308,2.296,1.26q0.924,1.064,0.924,2.324q0,1.512-1.176,2.744q-1.12,1.176-2.772,1.176z M220.39096,111.424q0-1.344,0.952-2.436q0.952-1.148,2.296-1.148l0.364,0l5.236,0l0-1.736l-5.236,0l-0.364,0q-1.428-0.28-2.338-1.232t-0.91-2.268q0-1.652,0.966-2.618t2.646-0.966l9.52,0l0-1.764l-9.52,0q-2.156,0-3.752,1.596q-1.596,1.54-1.596,3.752q0,1.4,0.532,2.548t1.568,1.652q-1.036,0.756-1.568,1.988t-0.532,2.632q0,2.184,1.596,3.724q1.624,1.624,3.752,1.624l9.52,0l0-1.848l-9.52,0q-1.68,0-2.646-0.952t-0.966-2.548z M245.58648,106.972l2.1,0q2.128,0,3.528-1.4t1.4-3.528q0-1.876-1.4-3.36q-1.484-1.54-3.528-1.54l-8.764,0l-1.736,0l0,19.656l1.736,0l0-9.828l4.564,0l5.964,9.828l2.1,0z M238.92248,105.236l0-6.328l8.764,0q1.288,0,2.268,0.924q0.924,0.924,0.924,2.212q0,1.344-0.924,2.268q-0.98,0.924-2.268,0.924l-8.764,0z"/></svg>
